PathFileType	4	(X/Y/Z)	27_2_49_p1_0-216_filt_butterworth.trc
DataRate	CameraRate	NumFrames	NumMarkers	Units	OrigDataRate	OrigDataStartFrame	OrigNumFrames
60.0	60.0	6	27	m	60.0	189	216
Frame#	Time	RHip			RKnee			RAnkle			RBigToe			RSmallToe			RHeel			LHip			LKnee			LAnkle			LBigToe			LSmallToe			LHeel			Neck			Head			Nose			RShoulder			RElbow			RWrist			RThumb			RIndex			RPinky			LShoulder			LElbow			LWrist			LThumb			LIndex			LPinky			
		X1	Y1	Z1	X2	Y2	Z2	X3	Y3	Z3	X4	Y4	Z4	X5	Y5	Z5	X6	Y6	Z6	X7	Y7	Z7	X8	Y8	Z8	X9	Y9	Z9	X10	Y10	Z10	X11	Y11	Z11	X12	Y12	Z12	X13	Y13	Z13	X14	Y14	Z14	X15	Y15	Z15	X16	Y16	Z16	X17	Y17	Z17	X18	Y18	Z18	X19	Y19	Z19	X20	Y20	Z20	X21	Y21	Z21	X22	Y22	Z22	X23	Y23	Z23	X24	Y24	Z24	X25	Y25	Z25	X26	Y26	Z26	X27	Y27	Z27	
189	3.15	0.1454982471827841	0.7735063488974371	0.7454751102152233	0.13600438298226067	0.38455787968709687	0.7414695497141839	0.1605571047128342	-0.035178836381659986	0.804557911287158	0.12384069404780393	0.009535786112938038	0.572470363558158	0.17899020876907312	0.018182239191959992	0.5926307306799342	0.15369391837310867	-0.11224600326191352	0.8891408843044333	-0.05192724628801395	0.7745595636856358	0.736320517505891	-0.03899286222830291	0.3577397174836967	0.7863317429959426	-0.028821990595299458	-0.037127618493364836	0.8117602608314737	-0.03977535193586742	0.027684577113905942	0.586042121486948	-0.07789930666002844	0.004131781786560512	0.6363712063431436	-0.005234875244475085	-0.1000271520753542	0.8664503114959692	0.039015306607468825	1.330654327145251	0.7408543131129508	0.03120972996463129	1.5788872302202903	0.7392104474320595	0.023490131515607308	1.4673356945050349	0.6148271761663193	0.17837396085400814	1.2489900860824728	0.754244547818015	0.24789514537645238	1.0159306603735483	0.8046538261898608	0.23634080850607928	0.9350001429368411	0.6018601130193992	0.16939895813789957	0.8969069928502607	0.4903142977625944	0.1736800986336354	0.8911130835219094	0.4855240397086469	0.20934742532921466	0.852110216624078	0.5363464863891115	-0.10552747612186542	1.2314571092852602	0.809711261995671	-0.189470893784483	1.012925909238374	0.8255700440559237	-0.21464986474404407	0.8694610671486782	0.6741953212959856	-0.17499524430961744	0.8121012715588355	0.5996452211265146	-0.19087643430537116	0.7875333731096501	0.5778778780458578	-0.21394675562387938	0.7547697656555319	0.622351744650156	
190	3.1666666666666665	0.1442918917153394	0.7730505283486749	0.7435650114498332	0.13609674414712006	0.38262389877358444	0.7416723612112026	0.16065810285941126	-0.036684768359199135	0.8062245700097493	0.12501313341479905	0.009584910358723844	0.5732801367811139	0.17895704557546188	0.018217529664653204	0.5925432681829408	0.15338202264783274	-0.11201824374647563	0.8890824133918969	-0.05348672702441479	0.770935182216719	0.7400843032519717	-0.03927479979233791	0.3556112904280242	0.7887631030739715	-0.029227793166733504	-0.038620478243561046	0.8133572423218888	-0.038613847077831	0.028152209990952734	0.5860612945780682	-0.0776144275720124	0.006122254107032599	0.6335250734704722	-0.00586926576044833	-0.09929065144193129	0.8648472101676389	0.03838642771767369	1.329516557766252	0.7435597450627235	0.03143429033731302	1.5790334226454419	0.7381650193647524	0.022935790619468405	1.4655248024624097	0.6170166512113661	0.17898030311433916	1.2476784816756927	0.7534767219425974	0.24958801854366408	1.0079846298541433	0.7987342207025849	0.23905052728119314	0.9190673062320773	0.5964330865461827	0.17101703737356863	0.869278840708982	0.4876004209649009	0.17762597615677267	0.8619713328975381	0.4842007148109045	0.21931838031070555	0.8245403350805421	0.539815795227168	-0.10548527563420665	1.2309445457931416	0.8095858843995501	-0.190031599905847	1.0109226155675353	0.8203208844924622	-0.21364727234448155	0.8600705054311696	0.6670002286033668	-0.167552544397915	0.7979990140963314	0.6007522347101802	-0.18684062786321814	0.7726325441381483	0.5712771836982524	-0.2118617652567897	0.7382034389680442	0.6170825038714409	
191	3.183333333333333	0.14290994780353913	0.7724303695657199	0.7414768411930431	0.13611666296606303	0.3805730426372607	0.742157533572554	0.1607587061714364	-0.03826464974052035	0.808043354270841	0.1258697184797271	0.009740553123551293	0.5747826099845743	0.1789549933993559	0.018278257639758363	0.5924674123617488	0.15309469716789853	-0.1117443103255718	0.8889966259702834	-0.0548323833708316	0.767217994963433	0.743731370814582	-0.03936537458141874	0.3538635067407099	0.7905579421095883	-0.029540711937617984	-0.039935173740620944	0.8147461039549502	-0.037221497953757225	0.028090157499598506	0.5860750278011873	-0.07697797926012989	0.007932246597229353	0.630963357851792	-0.006368305215695649	-0.09887978176024015	0.8637548738359568	0.037810492152094324	1.328549308667558	0.7459382705908897	0.03150701590799541	1.579041541692384	0.7379158641720959	0.022420698450457237	1.464452279184433	0.6192149910555582	0.17907069354412863	1.2470452911033658	0.7508164370520387	0.25076554445062216	1.0009765043247747	0.7943403744193804	0.24002145036343386	0.9044304155196786	0.5938136450446695	0.1711624059169306	0.8445854596951609	0.4858098054302596	0.1808475220021638	0.8340147675946424	0.4839073511497622	0.2250506074703183	0.8003093069250778	0.5395797347166593	-0.10560013932249393	1.2303756691403749	0.8094451030542933	-0.19061184579540658	1.0090595325066538	0.8160186651682599	-0.21000709481301094	0.8542572161376927	0.6565385378798483	-0.1559151118422487	0.7893340801968168	0.6016422045527068	-0.17789437475782638	0.764616542497562	0.5624860924068832	-0.20532489845883645	0.7286331547382627	0.6055873452655587	
192	3.2	0.1414916776648468	0.7718571051219706	0.7395432105850295	0.1360813098185417	0.3785709855768773	0.7428645260125847	0.1607771177662501	-0.03991548787300386	0.8100264946299109	0.1262999110984743	0.009480577657015876	0.5767113742158811	0.17896462523314038	0.018313792428159323	0.5924235077660253	0.15284609144919425	-0.11143504354023082	0.8888939062399771	-0.05576037158753445	0.7639191415289646	0.7470535873744201	-0.03929333936172316	0.3525532374491891	0.7916449393888277	-0.029753858232862654	-0.04097615199338964	0.8158012761708102	-0.035812550106320264	0.02744092947701672	0.5861440812995087	-0.07611104099025667	0.00930103619277843	0.6290247387667014	-0.0066960227259911945	-0.09888752454685762	0.8631971171479387	0.03736471143517494	1.3278879122468081	0.7476877716896033	0.031496359128319294	1.5789455269300774	0.7381648251993582	0.02206816263937069	1.4642002962652525	0.6209367626032033	0.17861448043597322	1.2471681600523303	0.7465923537243899	0.2513154307082671	0.9954861853925588	0.7912783708566471	0.2383346881503221	0.8923103002660501	0.5912667814562643	0.16858339345481133	0.8234686733412726	0.4850163240594252	0.18203078748442858	0.808653895500205	0.48318077921172503	0.2258065594973987	0.7801821314955544	0.5348127551747216	-0.10598811841696296	1.229575736029086	0.8092434320359445	-0.19114804588977846	1.0075880201529739	0.8127158623717509	-0.2040787090521768	0.851303917433048	0.6435028508398147	-0.14134416479336254	0.7864556681553582	0.6014890869759046	-0.1641742159375782	0.7627215981848118	0.5528122678025537	-0.1937707128443235	0.7264038495467056	0.589031881201747	
193	3.216666666666667	0.14019626089215945	0.771550554610539	0.7379045811980083	0.13601202835866702	0.37679021170671007	0.7436531713461312	0.16068615462418545	-0.04156881001430909	0.8120800791946615	0.12630962565360956	0.008633831085355939	0.5787372011117953	0.17900458345354472	0.018221197658688293	0.5924281684631814	0.1526629720134368	-0.11114252129263998	0.8887949902572402	-0.05620269071248151	0.7615011627003927	0.7499863072053019	-0.03920524958594406	0.35169277652831465	0.7921341032465855	-0.029868386871334356	-0.041679651834758163	0.8164453335685987	-0.034593404939356684	0.026301178440148343	0.5862629981108078	-0.07517783156230369	0.010035495030775346	0.6279513749186262	-0.0068546394899295544	-0.09919846928369251	0.86305534619859	0.037094809262531225	1.3275942043140738	0.7486520394662564	0.03148307675192687	1.5788644009422461	0.7384800877316826	0.021906574658818952	1.464577936016159	0.6219751471048982	0.17760988710655218	1.247768143675307	0.7418293337338366	0.2512343527474898	0.9918656156478604	0.7878762086206222	0.23318407165050203	0.882980423153018	0.5862263862742987	0.16225065341286207	0.8064040204621041	0.4847913372358704	0.17952510709023844	0.7868395924717733	0.48079948823355595	0.22118952791412944	0.7641323542682619	0.5259918242051972	-0.10668659266060429	1.2286107070827799	0.8089783016635554	-0.19144247205289266	1.0066851989199108	0.8098443066658939	-0.19592601475841945	0.8503590399470876	0.6288247835357232	-0.12502687078057892	0.7894471527733116	0.5983946843525919	-0.14650991970325428	0.7661097760614906	0.5422444554388361	-0.17724107990798607	0.7307744163249018	0.5696881267687852	
194	3.2333333333333334	0.13906757947917933	0.7717135451213262	0.7363847172310678	0.13593892458364232	0.3754054339233895	0.7444104244540409	0.16051484169505661	-0.04306570894874712	0.8139654898507072	0.12597506818037632	0.0074106596468592745	0.580663760936438	0.1790995641125035	0.01795579199861795	0.5924752860508944	0.15258126618464377	-0.11095849470406005	0.8887275625758437	-0.05624922526240231	0.7601939840658442	0.7525246019826357	-0.039243278690318205	0.35129547723928267	0.7922402505291355	-0.02988401054274723	-0.042011871071103754	0.8166505536494286	-0.03363458621305389	0.024850077986079563	0.5864004860161338	-0.07434097267182384	0.010146909334416088	0.6277151798442567	-0.006883795046874903	-0.09959984629519407	0.863195033366603	0.03700117697235458	1.3275989547627511	0.7488581891536283	0.03149660869490878	1.5789462860667127	0.7386153279784798	0.021869329291204914	1.465295914185401	0.6223625303602119	0.17599506949582047	1.2484207563510483	0.7375812854952217	0.2503920420658643	0.9904047815281145	0.7813935425135388	0.2242660204812641	0.875740145763585	0.5778182098917906	0.1511994000174577	0.7938558309349417	0.48473559950616574	0.17177862440013286	0.7686897173996333	0.4764893047068817	0.21065130055982537	0.7514150019445937	0.5147126153672766	-0.10763598561623655	1.2278030878092419	0.8086797601209941	-0.19107087149630214	1.0065343804207978	0.8059203464101493	-0.18544741626496639	0.8506864599128615	0.6142323746485912	-0.10787243792714622	0.7977650241026362	0.5905614737709931	-0.12597341144684218	0.7732248653970379	0.5312239431209994	-0.1564755727848293	0.7396562961959731	0.550097149635918	
